<svg width="14" height="25" viewBox="0 0 14 25" fill="none" xmlns="http://www.w3.org/2000/svg">
<path d="M10.1313 1.63623L0.943238 11.3709C0.610107 11.7239 0.422606 12.2035 0.422606 12.7036C0.422606 13.2036 0.610114 13.683 0.943238 14.0362L10.1313 23.777C10.5794 24.2532 11.2322 24.439 11.8441 24.2649C12.4563 24.0905 12.9343 23.5825 13.0981 22.9322C13.2622 22.2819 13.0871 21.5879 12.6393 21.1117L4.70807 12.7066L12.617 4.30159C12.9925 3.96214 13.2179 3.47167 13.2388 2.94803C13.26 2.42468 13.0745 1.91561 12.7274 1.54359C12.3806 1.17128 11.9031 0.969891 11.4104 0.987379C10.9177 1.00513 10.4542 1.24018 10.1315 1.63634L10.1313 1.63623Z" fill="white"/>
</svg>
