<svg width="14" height="25" viewBox="0 0 14 25" fill="none" xmlns="http://www.w3.org/2000/svg">
<path d="M3.69836 23.6318L12.8865 13.8972C13.2196 13.5442 13.4071 13.0646 13.4071 12.5645C13.4071 12.0645 13.2196 11.5851 12.8865 11.2318L3.69836 1.49106C3.25029 1.01488 2.5975 0.829115 1.9856 1.00321C1.37345 1.17758 0.895461 1.68559 0.731602 2.33588C0.567532 2.98616 0.742573 3.68015 1.1904 4.15636L9.12164 12.5614L1.21274 20.9665C0.837226 21.3059 0.611813 21.7964 0.590869 22.32C0.569675 22.8434 0.755188 23.3525 1.10228 23.7245C1.44912 24.0968 1.92662 24.2982 2.41934 24.2807C2.91206 24.2629 3.37556 24.0279 3.69824 23.6317L3.69836 23.6318Z" fill="white"/>
</svg>
