<svg width="45" height="45" viewBox="0 0 45 45" fill="none" xmlns="http://www.w3.org/2000/svg">
<path d="M34.3961 6.31607H10.6361C8.26003 6.31607 6.31616 8.25994 6.31616 10.636V34.396C6.31616 36.7721 8.26003 38.7159 10.6361 38.7159H34.3961C36.7722 38.7159 38.716 36.7721 38.716 34.396V10.636C38.716 8.25994 36.7722 6.31607 34.3961 6.31607ZM10.6361 8.4762H34.3961C35.5841 8.4762 36.5562 9.44826 36.5562 10.6363V21.8323L30.9041 19.0243H30.8682C30.8323 19.0243 30.7961 18.9884 30.7602 18.9884C30.7243 18.9884 30.6881 18.9525 30.6522 18.9525H30.5442H30.4363H30.3283H30.2203C30.1844 18.9525 30.1482 18.9525 30.1123 18.9884C30.0764 18.9884 30.0403 18.9884 30.0043 19.0243C29.9684 19.0243 29.9323 19.0602 29.8964 19.0602C29.8605 19.0602 29.8243 19.0961 29.7884 19.0961C29.7525 19.0961 29.7163 19.1321 29.7163 19.1682C29.6804 19.2041 29.6442 19.2041 29.6083 19.2403C29.6083 19.2403 29.5724 19.2403 29.5724 19.2762L23.956 24.964L21.256 23.3799C21.256 23.3799 21.2201 23.3799 21.2201 23.344C21.1842 23.344 21.148 23.3081 21.1121 23.3081C21.0762 23.3081 21.04 23.2722 21.0041 23.2722C20.9682 23.2722 20.932 23.2722 20.8961 23.2363H20.7881H20.6802H20.5722H20.4642C20.4283 23.2363 20.3921 23.2363 20.3562 23.2722C20.3203 23.2722 20.2841 23.3081 20.2482 23.3081C20.2123 23.3081 20.1762 23.344 20.1403 23.344C20.1403 23.344 20.1043 23.344 20.1043 23.3799L8.47634 30.3279V10.6359C8.47634 9.44794 9.44815 8.47607 10.6362 8.47607L10.6361 8.4762ZM34.3961 36.5562H10.6361C9.4481 36.5562 8.47597 35.5841 8.47597 34.3961V32.8482L20.716 25.5762L28.816 30.2921C28.996 30.4001 29.1761 30.436 29.3559 30.436C29.716 30.436 30.0758 30.256 30.2918 29.8961C30.5798 29.3921 30.4357 28.7081 29.8958 28.4201L25.8639 26.0802L30.616 21.3281L36.5561 24.2804V34.3964C36.5561 35.5844 35.5843 36.5563 34.3962 36.5563L34.3961 36.5562ZM15.3161 20.7162C17.2962 20.7162 18.9161 19.0963 18.9161 17.1162C18.9161 15.1361 17.2962 13.5162 15.3161 13.5162C13.336 13.5162 11.7161 15.1361 11.7161 17.1162C11.7161 19.0963 13.336 20.7162 15.3161 20.7162ZM15.3161 15.6763C16.1081 15.6763 16.756 16.3242 16.756 17.1162C16.756 17.9082 16.1081 18.5561 15.3161 18.5561C14.5241 18.5561 13.8762 17.9082 13.8762 17.1162C13.8762 16.3242 14.5241 15.6763 15.3161 15.6763Z" fill="#ADBBBA"/>
</svg>
