<svg width="34" height="35" viewBox="0 0 34 35" fill="none" xmlns="http://www.w3.org/2000/svg">
<path d="M14.3523 0.917248C11.4458 1.34135 8.18585 2.85598 5.80959 4.8553C3.55116 6.79403 1.31238 10.4494 0.467921 13.6402C-0.081957 15.6799 -0.04268 20.3046 0.546475 22.3847C2.2943 28.6048 7.14501 33.2901 13.2526 34.6633C15.079 35.0874 18.8299 34.9662 20.6956 34.4614C26.4693 32.8861 30.9665 28.322 32.6358 22.4049C33.2838 20.1026 33.2838 15.6597 32.6358 13.3575C30.6326 6.20837 24.584 1.24037 17.4356 0.836468C16.434 0.796078 15.0397 0.816273 14.3523 0.917248ZM21.7364 1.9674C22.8362 2.3511 24.2305 2.97715 24.8393 3.36086C31.1236 7.25852 34.1479 14.6297 32.4787 21.9202C32.0466 23.8185 30.4363 27.0498 29.199 28.6048C27.2548 31.008 24.6036 32.8458 21.5989 33.8757C19.8118 34.5018 19.5958 34.522 16.5911 34.522C13.6846 34.522 13.3311 34.4816 11.7797 33.9565C6.24164 32.0985 2.25502 27.7768 0.762498 22.0212C0.153705 19.7593 0.153705 16.0232 0.74286 13.7412C2.13719 8.38945 6.222 3.72437 10.9745 2.10876C13.3704 1.28076 14.3327 1.13939 17.0821 1.19998C19.5173 1.24037 19.8904 1.30096 21.7364 1.9674Z" fill="white"/>
<path d="M12.624 8.08679C9.24622 8.8744 6.77177 11.4998 6.51647 14.5694C6.39863 16.1043 6.71285 17.0938 7.49839 17.7805C8.14646 18.3459 8.40176 18.3459 8.71598 17.8209C8.89272 17.5381 8.77489 17.3362 8.12682 16.7101C7.18417 15.8215 6.94851 15.0541 7.26273 13.802C7.77333 11.8431 9.20694 10.1669 11.1708 9.23792C12.4866 8.61187 14.961 8.38972 15.9037 8.79362C16.5321 9.05616 17.082 9.90436 17.082 10.591C17.082 11.3382 16.4535 12.6307 15.9037 13.0346C15.3931 13.4183 13.5863 13.9434 13.4096 13.7616C13.3507 13.7212 13.547 12.7923 13.822 11.7017C14.1166 10.6314 14.3129 9.7226 14.2933 9.7024C14.254 9.66201 13.6845 9.7428 13.0168 9.86397C12.192 9.98514 11.7796 10.1467 11.7796 10.3285C11.7796 10.49 11.917 10.6112 12.0742 10.6112C12.2313 10.6112 12.3687 10.7727 12.3687 10.9545C12.3687 11.6613 10.4049 19.1537 10.1103 19.6182C9.9532 19.8808 9.46224 20.2039 9.03019 20.325C7.53767 20.7895 8.10718 21.0117 10.7387 21.0117H13.2525L13.3114 21.5166C13.4292 22.5667 13.5667 22.9504 14.1558 23.637C14.8039 24.4045 15.6287 24.5862 15.8447 24.0208C15.9233 23.7986 15.6876 23.4149 15.0592 22.8494C13.9595 21.7993 13.7631 21.0117 14.2148 19.4567C14.6468 17.942 15.5698 16.5889 16.8267 15.66C20.7936 12.7519 25.6444 13.5395 24.7213 16.9525C24.466 17.9218 23.5038 19.0124 22.7182 19.2547C21.7363 19.5778 20.8133 19.699 20.8133 19.5374C20.8133 19.4567 21.0686 18.4267 21.3632 17.215C21.6774 16.0235 21.8738 15.0541 21.8148 15.0743C20.7936 15.1753 19.144 15.6398 19.0851 15.8215C19.0458 15.9629 19.144 16.0639 19.3208 16.0639C19.4779 16.0639 19.6743 16.1447 19.7332 16.2658C19.8706 16.5082 17.7693 24.9699 17.3569 25.7777C17.0427 26.4442 16.5321 26.7673 15.8447 26.7673C15.452 26.7673 15.1315 27.0495 15.1315 27.3928C15.1315 27.413 15.6504 27.1268 18.7905 27.3731C22.3254 27.2722 22.1363 27.3929 23.4334 26.8609C25.3187 25.8309 26.5467 24.2577 26.5467 22.3392C26.5467 21.4102 26.1558 20.8947 25.7683 20.4773C25.3559 20.033 24.99 19.9453 24.3678 19.699C23.5558 19.5374 23.8769 19.4567 24.8981 18.7902C27.1172 17.316 26.9405 14.529 24.5446 13.4789C23.4252 12.9942 20.8133 13.0952 19.0262 13.701C17.6908 14.1655 17.4747 14.2059 16.7874 13.9636L16.0411 13.701L16.807 13.2568C18.7636 11.9656 18.6716 9.43337 16.6881 8.24186C15.883 7.75718 14.1558 7.72328 12.624 8.08679ZM15.5109 14.7512C16.0804 15.0541 16.1754 15.1231 15.9098 15.4236C15.6504 15.6895 13.9202 17.9622 13.5863 19.1335C13.2721 20.2443 13.2132 20.3049 12.624 20.3049C11.4654 20.3049 11.3475 20.1635 11.7796 19.3153C11.976 18.9114 12.2902 17.9824 12.4669 17.2554C13.2328 14.1453 13.0561 14.4483 14.0576 14.4483C14.5486 14.4483 15.1967 14.5896 15.5109 14.7512ZM22.836 20.527C25.0159 21.153 24.7213 24.8286 22.3844 26.2624C21.8541 26.5653 21.3632 26.6663 20.283 26.6663C19.6694 26.6663 19.1063 26.6274 18.8662 26.5808C18.7872 26.5655 18.7271 26.5068 18.7384 26.4271C18.7584 26.2858 18.8568 26.0447 19.0262 25.7373C19.36 25.1315 19.6939 24.0611 20.4205 21.153C20.6169 20.3452 20.6758 20.3049 21.3632 20.3049C21.7559 20.3049 22.4236 20.4058 22.836 20.527Z" fill="white"/>
<path d="M17.1648 15.8778C16.6738 16.2211 16.2126 16.9443 16.1144 17.6915C15.9769 18.7619 14.9105 19.6524 14.1053 20.0967C13.8108 20.2583 13.5751 20.541 13.5751 20.7429C13.5751 20.9882 15.1192 20.7811 16.4042 20.0017C16.6214 19.8699 16.8147 19.7021 16.9836 19.5123C17.8802 18.5048 18.3707 17.4407 18.2449 16.2211C18.1664 15.3931 17.97 15.3123 17.1648 15.8778Z" fill="white"/>
</svg>
