<svg width="105" height="81" viewBox="0 0 105 81" fill="none" xmlns="http://www.w3.org/2000/svg">
<path d="M0.493 75.7415V75.2485C0.946333 75.0331 1.411 74.8971 1.887 74.8405V64.7595C1.66033 64.7141 1.428 64.6575 1.19 64.5895C0.952 64.5101 0.719667 64.4251 0.493 64.3345V63.8415H2.295C2.51033 63.8415 2.71433 63.8358 2.907 63.8245C3.111 63.8131 3.32067 63.8018 3.536 63.7905C3.75133 63.7791 3.98367 63.7678 4.233 63.7565C4.48233 63.7451 4.76567 63.7395 5.083 63.7395C5.53633 63.7395 5.99533 63.7791 6.46 63.8585C6.936 63.9265 7.361 64.0625 7.735 64.2665C8.12033 64.4705 8.432 64.7595 8.67 65.1335C8.908 65.4961 9.027 65.9721 9.027 66.5615C9.027 66.8561 8.98167 67.1508 8.891 67.4455C8.80033 67.7401 8.65867 68.0178 8.466 68.2785C8.28467 68.5278 8.05233 68.7488 7.769 68.9415C7.48567 69.1341 7.15133 69.2758 6.766 69.3665V69.4345C7.106 69.4911 7.44033 69.5875 7.769 69.7235C8.109 69.8595 8.40933 70.0465 8.67 70.2845C8.93067 70.5111 9.14033 70.7945 9.299 71.1345C9.469 71.4745 9.554 71.8825 9.554 72.3585C9.554 72.9705 9.418 73.4975 9.146 73.9395C8.874 74.3815 8.517 74.7441 8.075 75.0275C7.64433 75.3108 7.15133 75.5205 6.596 75.6565C6.04067 75.7811 5.47967 75.8435 4.913 75.8435C4.51633 75.8435 4.06867 75.8265 3.57 75.7925C3.07133 75.7585 2.58967 75.7415 2.125 75.7415H0.493ZM5.032 74.9595C5.44 74.9595 5.81967 74.8971 6.171 74.7725C6.53367 74.6478 6.83967 74.4778 7.089 74.2625C7.34967 74.0358 7.55367 73.7695 7.701 73.4635C7.84833 73.1461 7.922 72.8061 7.922 72.4435C7.922 71.9901 7.83133 71.6161 7.65 71.3215C7.48 71.0155 7.242 70.7775 6.936 70.6075C6.64133 70.4261 6.29567 70.3015 5.899 70.2335C5.51367 70.1655 5.11133 70.1315 4.692 70.1315H3.417V74.8235C3.57567 74.8688 3.76267 74.9028 3.978 74.9255C4.20467 74.9481 4.556 74.9595 5.032 74.9595ZM4.267 69.2475C4.45967 69.2475 4.68633 69.2418 4.947 69.2305C5.219 69.2078 5.44 69.1851 5.61 69.1625C6.13133 68.9811 6.55633 68.6921 6.885 68.2955C7.225 67.8875 7.395 67.4115 7.395 66.8675C7.395 66.1195 7.16833 65.5585 6.715 65.1845C6.273 64.8105 5.678 64.6235 4.93 64.6235C4.57867 64.6235 4.27833 64.6291 4.029 64.6405C3.77967 64.6518 3.57567 64.6688 3.417 64.6915V69.2475H4.267ZM14.777 75.7415H11.122V75.3165C11.2807 75.2258 11.4563 75.1521 11.649 75.0955C11.8417 75.0275 12.04 74.9651 12.244 74.9085V68.0915C12.04 68.0348 11.8417 67.9781 11.649 67.9215C11.4563 67.8535 11.2807 67.7741 11.122 67.6835V67.2415H14.777V67.6835C14.5163 67.8421 14.182 67.9781 13.774 68.0915V71.0665H17.548V68.0915C17.1513 68.0235 16.8113 67.8875 16.528 67.6835V67.2415H20.2V67.6835C19.894 67.8761 19.52 68.0121 19.078 68.0915V74.9085C19.282 74.9538 19.4803 75.0048 19.673 75.0615C19.8657 75.1181 20.0413 75.2031 20.2 75.3165V75.7415H16.528V75.3165C16.8113 75.1125 17.1513 74.9765 17.548 74.9085V71.8145H13.774V74.9085C14.0007 74.9538 14.1933 75.0105 14.352 75.0785C14.5107 75.1465 14.6523 75.2258 14.777 75.3165V75.7415ZM28.4502 74.5515C28.3595 74.7441 28.2178 74.9255 28.0252 75.0955C27.8325 75.2655 27.6115 75.4128 27.3622 75.5375C27.1128 75.6621 26.8408 75.7585 26.5462 75.8265C26.2515 75.9058 25.9512 75.9455 25.6452 75.9455C24.9765 75.9455 24.3872 75.8435 23.8772 75.6395C23.3672 75.4241 22.9422 75.1238 22.6022 74.7385C22.2622 74.3418 22.0015 73.8715 21.8202 73.3275C21.6502 72.7835 21.5652 72.1715 21.5652 71.4915C21.5652 70.0408 21.8995 68.9358 22.5682 68.1765C23.2368 67.4171 24.1832 67.0375 25.4072 67.0375C25.8038 67.0375 26.1948 67.0941 26.5802 67.2075C26.9655 67.3095 27.3055 67.4851 27.6002 67.7345C27.9062 67.9838 28.1498 68.3181 28.3312 68.7375C28.5238 69.1455 28.6202 69.6555 28.6202 70.2675C28.6202 70.4601 28.6088 70.6585 28.5862 70.8625C28.5748 71.0551 28.5465 71.2648 28.5012 71.4915H23.1972C23.1972 71.9675 23.2538 72.4151 23.3672 72.8345C23.4918 73.2425 23.6732 73.5995 23.9112 73.9055C24.1492 74.2115 24.4495 74.4551 24.8122 74.6365C25.1748 74.8065 25.5998 74.8915 26.0872 74.8915C26.4838 74.8915 26.8862 74.8348 27.2942 74.7215C27.7022 74.6081 28.0082 74.4608 28.2122 74.2795L28.4502 74.5515ZM25.3392 67.7855C24.6932 67.7855 24.2002 68.0065 23.8602 68.4485C23.5202 68.8791 23.3162 69.6441 23.2482 70.7435H26.9882C26.9995 70.6415 27.0052 70.5451 27.0052 70.4545C27.0165 70.3525 27.0222 70.2561 27.0222 70.1655C27.0222 69.4401 26.8862 68.8621 26.6142 68.4315C26.3422 68.0008 25.9172 67.7855 25.3392 67.7855ZM34.0448 75.7415V75.2485C34.4981 75.0331 34.9628 74.8971 35.4388 74.8405V64.7595C35.2121 64.7141 34.9798 64.6575 34.7418 64.5895C34.5038 64.5101 34.2714 64.4251 34.0448 64.3345V63.8415H35.8468C36.0621 63.8415 36.2661 63.8358 36.4588 63.8245C36.6628 63.8131 36.8724 63.8018 37.0878 63.7905C37.3031 63.7791 37.5354 63.7678 37.7848 63.7565C38.0341 63.7451 38.3174 63.7395 38.6348 63.7395C39.0881 63.7395 39.5471 63.7791 40.0118 63.8585C40.4878 63.9265 40.9128 64.0625 41.2868 64.2665C41.6721 64.4705 41.9838 64.7595 42.2218 65.1335C42.4598 65.4961 42.5788 65.9721 42.5788 66.5615C42.5788 66.8561 42.5334 67.1508 42.4428 67.4455C42.3521 67.7401 42.2104 68.0178 42.0178 68.2785C41.8364 68.5278 41.6041 68.7488 41.3208 68.9415C41.0374 69.1341 40.7031 69.2758 40.3178 69.3665V69.4345C40.6578 69.4911 40.9921 69.5875 41.3208 69.7235C41.6608 69.8595 41.9611 70.0465 42.2218 70.2845C42.4824 70.5111 42.6921 70.7945 42.8508 71.1345C43.0208 71.4745 43.1058 71.8825 43.1058 72.3585C43.1058 72.9705 42.9698 73.4975 42.6978 73.9395C42.4258 74.3815 42.0688 74.7441 41.6268 75.0275C41.1961 75.3108 40.7031 75.5205 40.1478 75.6565C39.5924 75.7811 39.0314 75.8435 38.4648 75.8435C38.0681 75.8435 37.6204 75.8265 37.1218 75.7925C36.6231 75.7585 36.1414 75.7415 35.6768 75.7415H34.0448ZM38.5838 74.9595C38.9918 74.9595 39.3714 74.8971 39.7228 74.7725C40.0854 74.6478 40.3914 74.4778 40.6408 74.2625C40.9014 74.0358 41.1054 73.7695 41.2528 73.4635C41.4001 73.1461 41.4738 72.8061 41.4738 72.4435C41.4738 71.9901 41.3831 71.6161 41.2018 71.3215C41.0318 71.0155 40.7938 70.7775 40.4878 70.6075C40.1931 70.4261 39.8474 70.3015 39.4508 70.2335C39.0654 70.1655 38.6631 70.1315 38.2438 70.1315H36.9688V74.8235C37.1274 74.8688 37.3144 74.9028 37.5298 74.9255C37.7564 74.9481 38.1078 74.9595 38.5838 74.9595ZM37.8188 69.2475C38.0114 69.2475 38.2381 69.2418 38.4988 69.2305C38.7708 69.2078 38.9918 69.1851 39.1618 69.1625C39.6831 68.9811 40.1081 68.6921 40.4368 68.2955C40.7768 67.8875 40.9468 67.4115 40.9468 66.8675C40.9468 66.1195 40.7201 65.5585 40.2668 65.1845C39.8248 64.8105 39.2298 64.6235 38.4818 64.6235C38.1304 64.6235 37.8301 64.6291 37.5808 64.6405C37.3314 64.6518 37.1274 64.6688 36.9688 64.6915V69.2475H37.8188ZM48.3117 79.1415H44.5377V78.7165C44.9231 78.5351 45.2971 78.3991 45.6597 78.3085V68.2275L44.5377 68.0915V67.6495C44.9004 67.4908 45.2687 67.3661 45.6427 67.2755C46.0281 67.1735 46.4021 67.0941 46.7647 67.0375H47.1897V68.9415H47.2067C47.4334 68.3635 47.7507 67.9045 48.1587 67.5645C48.5667 67.2131 49.0994 67.0375 49.7567 67.0375C50.7654 67.0375 51.5474 67.3718 52.1027 68.0405C52.6581 68.7091 52.9357 69.7971 52.9357 71.3045C52.9357 72.0185 52.8394 72.6645 52.6467 73.2425C52.4654 73.8205 52.1991 74.3078 51.8477 74.7045C51.5077 75.1011 51.0884 75.4071 50.5897 75.6225C50.1024 75.8378 49.5584 75.9455 48.9577 75.9455C48.5384 75.9455 48.2097 75.9171 47.9717 75.8605C47.7337 75.8151 47.4731 75.7301 47.1897 75.6055V78.3085C47.3711 78.3311 47.5524 78.3708 47.7337 78.4275C47.9151 78.4955 48.1077 78.5918 48.3117 78.7165V79.1415ZM49.2127 68.0915C48.6574 68.0915 48.2154 68.2671 47.8867 68.6185C47.5581 68.9698 47.3257 69.4515 47.1897 70.0635V74.8235C47.3937 74.9481 47.6204 75.0445 47.8697 75.1125C48.1304 75.1691 48.4647 75.1975 48.8727 75.1975C49.2467 75.1975 49.5811 75.1011 49.8757 74.9085C50.1817 74.7158 50.4367 74.4438 50.6407 74.0925C50.8561 73.7411 51.0204 73.3331 51.1337 72.8685C51.2471 72.3925 51.3037 71.8711 51.3037 71.3045C51.3037 70.8398 51.2641 70.4148 51.1847 70.0295C51.1167 69.6328 50.9977 69.2928 50.8277 69.0095C50.6691 68.7148 50.4537 68.4881 50.1817 68.3295C49.9211 68.1708 49.5981 68.0915 49.2127 68.0915ZM61.2216 74.5515C61.131 74.7441 60.9893 74.9255 60.7966 75.0955C60.604 75.2655 60.383 75.4128 60.1336 75.5375C59.8843 75.6621 59.6123 75.7585 59.3176 75.8265C59.023 75.9058 58.7226 75.9455 58.4166 75.9455C57.748 75.9455 57.1586 75.8435 56.6486 75.6395C56.1386 75.4241 55.7136 75.1238 55.3736 74.7385C55.0336 74.3418 54.773 73.8715 54.5916 73.3275C54.4216 72.7835 54.3366 72.1715 54.3366 71.4915C54.3366 70.0408 54.671 68.9358 55.3396 68.1765C56.0083 67.4171 56.9546 67.0375 58.1786 67.0375C58.5753 67.0375 58.9663 67.0941 59.3516 67.2075C59.737 67.3095 60.077 67.4851 60.3716 67.7345C60.6776 67.9838 60.9213 68.3181 61.1026 68.7375C61.2953 69.1455 61.3916 69.6555 61.3916 70.2675C61.3916 70.4601 61.3803 70.6585 61.3576 70.8625C61.3463 71.0551 61.318 71.2648 61.2726 71.4915H55.9686C55.9686 71.9675 56.0253 72.4151 56.1386 72.8345C56.2633 73.2425 56.4446 73.5995 56.6826 73.9055C56.9206 74.2115 57.221 74.4551 57.5836 74.6365C57.9463 74.8065 58.3713 74.8915 58.8586 74.8915C59.2553 74.8915 59.6576 74.8348 60.0656 74.7215C60.4736 74.6081 60.7796 74.4608 60.9836 74.2795L61.2216 74.5515ZM58.1106 67.7855C57.4646 67.7855 56.9716 68.0065 56.6316 68.4485C56.2916 68.8791 56.0876 69.6441 56.0196 70.7435H59.7596C59.771 70.6415 59.7766 70.5451 59.7766 70.4545C59.788 70.3525 59.7936 70.2561 59.7936 70.1655C59.7936 69.4401 59.6576 68.8621 59.3856 68.4315C59.1136 68.0008 58.6886 67.7855 58.1106 67.7855ZM65.7085 75.7415H62.7165V75.3165C63.0905 75.1351 63.4645 74.9991 63.8385 74.9085L64.0935 68.2615C63.8555 68.1708 63.6458 68.0745 63.4645 67.9725C63.2831 67.8705 63.1188 67.7741 62.9715 67.6835V67.2415H66.2865L68.0375 72.2055L68.3605 73.3785H68.4115L68.7685 72.1885L70.5875 67.2415H73.8005V67.6835C73.6531 67.7741 73.4888 67.8535 73.3075 67.9215C73.1261 67.9895 72.9165 68.0461 72.6785 68.0915L73.0185 74.9085C73.3925 74.9765 73.7665 75.1125 74.1405 75.3165V75.7415H70.5365V75.3165C70.6498 75.2598 70.7858 75.1975 70.9445 75.1295C71.1031 75.0615 71.3071 74.9878 71.5565 74.9085L71.2165 68.0235H71.0805L68.2925 75.7415H67.8335L65.0795 68.0235H64.9435L64.6885 74.9085C65.0965 75.0331 65.4365 75.1691 65.7085 75.3165V75.7415ZM82.2558 74.5515C82.1652 74.7441 82.0235 74.9255 81.8308 75.0955C81.6382 75.2655 81.4172 75.4128 81.1678 75.5375C80.9185 75.6621 80.6465 75.7585 80.3518 75.8265C80.0572 75.9058 79.7568 75.9455 79.4508 75.9455C78.7822 75.9455 78.1928 75.8435 77.6828 75.6395C77.1728 75.4241 76.7478 75.1238 76.4078 74.7385C76.0678 74.3418 75.8072 73.8715 75.6258 73.3275C75.4558 72.7835 75.3708 72.1715 75.3708 71.4915C75.3708 70.0408 75.7052 68.9358 76.3738 68.1765C77.0425 67.4171 77.9888 67.0375 79.2128 67.0375C79.6095 67.0375 80.0005 67.0941 80.3858 67.2075C80.7712 67.3095 81.1112 67.4851 81.4058 67.7345C81.7118 67.9838 81.9555 68.3181 82.1368 68.7375C82.3295 69.1455 82.4258 69.6555 82.4258 70.2675C82.4258 70.4601 82.4145 70.6585 82.3918 70.8625C82.3805 71.0551 82.3522 71.2648 82.3068 71.4915H77.0028C77.0028 71.9675 77.0595 72.4151 77.1728 72.8345C77.2975 73.2425 77.4788 73.5995 77.7168 73.9055C77.9548 74.2115 78.2552 74.4551 78.6178 74.6365C78.9805 74.8065 79.4055 74.8915 79.8928 74.8915C80.2895 74.8915 80.6918 74.8348 81.0998 74.7215C81.5078 74.6081 81.8138 74.4608 82.0178 74.2795L82.2558 74.5515ZM79.1448 67.7855C78.4988 67.7855 78.0058 68.0065 77.6658 68.4485C77.3258 68.8791 77.1218 69.6441 77.0538 70.7435H80.7938C80.8052 70.6415 80.8108 70.5451 80.8108 70.4545C80.8222 70.3525 80.8278 70.2561 80.8278 70.1655C80.8278 69.4401 80.6918 68.8621 80.4198 68.4315C80.1478 68.0008 79.7228 67.7855 79.1448 67.7855ZM87.5416 75.7415H83.8866V75.3165C84.0453 75.2258 84.221 75.1521 84.4136 75.0955C84.6063 75.0275 84.8046 74.9651 85.0086 74.9085V68.0915C84.8046 68.0348 84.6063 67.9781 84.4136 67.9215C84.221 67.8535 84.0453 67.7741 83.8866 67.6835V67.2415H87.5416V67.6835C87.281 67.8421 86.9466 67.9781 86.5386 68.0915V71.0665H90.3126V68.0915C89.916 68.0235 89.576 67.8875 89.2926 67.6835V67.2415H92.9646V67.6835C92.6586 67.8761 92.2846 68.0121 91.8426 68.0915V74.9085C92.0466 74.9538 92.245 75.0048 92.4376 75.0615C92.6303 75.1181 92.806 75.2031 92.9646 75.3165V75.7415H89.2926V75.3165C89.576 75.1125 89.916 74.9765 90.3126 74.9085V71.8145H86.5386V74.9085C86.7653 74.9538 86.958 75.0105 87.1166 75.0785C87.2753 75.1465 87.417 75.2258 87.5416 75.3165V75.7415ZM94.2958 67.2415H97.8998V67.6835C97.7751 67.7515 97.6278 67.8195 97.4578 67.8875C97.2991 67.9555 97.1065 68.0235 96.8798 68.0915V72.7495L96.6928 74.3305H96.7778L97.4408 73.0555L101.079 67.2415H103.374V67.6835C103.011 67.8875 102.637 68.0235 102.252 68.0915V74.9085C102.467 74.9651 102.671 75.0275 102.864 75.0955C103.056 75.1521 103.226 75.2258 103.374 75.3165V75.7415H99.7698V75.3165C100.087 75.1351 100.427 74.9991 100.79 74.9085V70.0465L100.96 68.7035H100.875L100.229 69.9785L96.6248 75.7415H94.2958V75.3165C94.4885 75.2258 94.6755 75.1521 94.8568 75.0955C95.0381 75.0275 95.2251 74.9651 95.4178 74.9085V68.0915C94.9758 68.0235 94.6018 67.8875 94.2958 67.6835V67.2415Z" fill="#1C4644"/>
<circle cx="52" cy="29" r="29" fill="#1C4644"/>
<path d="M46.4556 14.377C41.2466 15.5916 37.4307 19.6403 37.037 24.3741C36.8553 26.741 37.3399 28.267 38.5513 29.3259C39.5507 30.1979 39.9444 30.1979 40.4289 29.3882C40.7015 28.9522 40.5198 28.6407 39.5204 27.6753C38.0667 26.305 37.7033 25.1215 38.1878 23.1906C38.9752 20.1697 41.186 17.5848 44.2145 16.1522C46.2436 15.1867 50.0595 14.8442 51.5132 15.467C52.4823 15.8719 53.3303 17.1799 53.3303 18.2388C53.3303 19.3911 52.3612 21.3843 51.5132 22.0072C50.7258 22.5989 47.9396 23.4086 47.667 23.1283C47.5761 23.066 47.879 21.6334 48.303 19.9517C48.7573 18.3011 49.0601 16.8996 49.0298 16.8685C48.9693 16.8062 48.091 16.9308 47.0613 17.1176C45.7893 17.3045 45.1534 17.5536 45.1534 17.8339C45.1534 18.0831 45.3654 18.2699 45.6076 18.2699C45.8499 18.2699 46.0619 18.5191 46.0619 18.7994C46.0619 19.8894 43.0334 31.4436 42.5791 32.1599C42.3369 32.5648 41.5797 33.0631 40.9135 33.25C38.6118 33.9663 39.4901 34.3088 43.5483 34.3088H47.4247L47.5156 35.0874C47.6973 36.7069 47.9093 37.2986 48.8178 38.3575C49.8172 39.5409 51.0892 39.8212 51.4223 38.9492C51.5435 38.6066 51.18 38.0149 50.2109 37.1429C48.515 35.5234 48.2121 34.3088 48.9087 31.9108C49.575 29.575 50.9983 27.4884 52.9366 26.0558C59.0541 21.5712 66.5345 22.7858 65.1111 28.049C64.7174 29.5439 63.2334 31.2256 62.022 31.5994C60.5078 32.0977 59.0844 32.2845 59.0844 32.0354C59.0844 31.9108 59.4781 30.3225 59.9324 28.4539C60.4169 26.6164 60.7198 25.1215 60.6289 25.1527C59.0541 25.3084 56.5102 26.0247 56.4193 26.305C56.3588 26.523 56.5102 26.6787 56.7827 26.6787C57.025 26.6787 57.3279 26.8033 57.4187 26.9901C57.6307 27.3638 54.3902 40.413 53.7543 41.6587C53.2697 42.6864 52.4823 43.1847 51.4223 43.1847C50.8166 43.1847 50.3225 43.6199 50.3225 44.1493C50.3225 44.1804 51.1226 43.7391 55.9651 44.119C61.4163 43.9633 61.1246 44.1494 63.125 43.3291C66.0323 41.7408 67.9259 39.3146 67.9259 36.356C67.9259 34.9234 67.3232 34.1284 66.7257 33.4847C66.0897 32.7995 65.5255 32.6643 64.566 32.2845C63.3136 32.0354 63.8088 31.9108 65.3837 30.8831C68.8058 28.6096 68.5333 24.3118 64.8385 22.6923C63.1123 21.9449 59.0844 22.1006 56.3285 23.0349C54.2691 23.7512 53.936 23.8135 52.876 23.4398L51.7252 23.0349L52.9063 22.3497C55.9236 20.3587 55.7817 16.4536 52.7229 14.6161C51.4812 13.8687 48.8178 13.8164 46.4556 14.377ZM50.9075 24.6544C51.7857 25.1215 51.9323 25.2279 51.5227 25.6912C51.1226 26.1014 48.4544 29.6062 47.9396 31.4125C47.455 33.1254 47.3642 33.2188 46.4556 33.2188C44.6688 33.2188 44.4871 33.0008 45.1534 31.6928C45.4562 31.0699 45.9408 29.6373 46.2133 28.5162C47.3944 23.7201 47.1219 24.1872 48.6664 24.1872C49.4235 24.1872 50.4229 24.4052 50.9075 24.6544ZM62.2037 33.5614C65.5654 34.5268 65.1111 40.195 61.5072 42.4061C60.6895 42.8733 59.9324 43.029 58.2667 43.029C57.3205 43.029 56.452 42.969 56.0817 42.8972C55.9599 42.8735 55.8672 42.783 55.8847 42.6601C55.9156 42.4422 56.0673 42.0704 56.3285 41.5964C56.8433 40.6621 57.3582 39.0115 58.4787 34.5268C58.7815 33.2811 58.8724 33.2188 59.9324 33.2188C60.5381 33.2188 61.5678 33.3745 62.2037 33.5614Z" fill="white"/>
</svg>
