<svg width="42" height="42" viewBox="0 0 42 42" fill="none" xmlns="http://www.w3.org/2000/svg">
<path d="M36.3866 10.8682C35.7793 8.65532 34.578 6.90354 32.8155 5.6644C30.5911 4.09917 28.0326 3.54406 25.8231 3.20735C22.7657 2.74172 19.9963 2.67651 17.3592 3.00563C14.8853 3.31503 13.0233 3.80948 11.323 4.60726C7.99242 6.16946 5.99375 8.6993 5.38346 12.124C5.08648 13.7863 4.8875 15.2893 4.77168 16.7226C4.5044 20.0366 4.74644 22.9699 5.51264 25.6878C6.25806 28.3375 7.5618 30.2318 9.49811 31.4755C9.99258 31.7925 10.6222 32.0215 11.234 32.243C11.5398 32.3537 11.8339 32.4629 12.0907 32.5782V37.9321C12.0907 38.6328 12.6461 39.2001 13.3321 39.2001C13.6558 39.2001 13.9662 39.0711 14.1978 38.8406L19.0341 34.0357C19.245 33.79 19.245 33.79 19.4618 33.7854C21.1145 33.7521 22.8028 33.6869 24.4807 33.5943C26.5136 33.4806 28.8686 33.2804 31.087 32.3355C33.1169 31.4695 34.5988 30.0953 35.4883 28.2525C36.4163 26.3294 36.9687 24.2454 37.1751 21.8839C37.5374 17.7312 37.2791 14.1276 36.3866 10.8682ZM27.9658 26.6721C27.4802 27.4836 26.7526 28.0448 25.8973 28.4088C25.2722 28.6757 24.6337 28.6196 24.0174 28.3526C18.8441 26.117 14.7888 22.5922 12.1071 17.528C11.5547 16.4845 11.1701 15.3485 10.7291 14.2459C10.6385 14.0184 10.6459 13.7529 10.6058 13.5057C10.6445 11.7236 11.9823 10.7211 13.3336 10.4177C13.8503 10.3009 14.3077 10.4875 14.6908 10.8621C15.751 11.8965 16.59 13.0947 17.2211 14.4385C17.4973 15.0285 17.3725 15.5502 16.9018 15.9885C16.8053 16.0795 16.7028 16.1645 16.5974 16.2449C15.5238 17.0699 15.3664 17.6933 15.9381 18.9355C16.9122 21.0482 18.5293 22.4663 20.6215 23.346C21.1724 23.5781 21.6921 23.4628 22.1138 23.0063C22.1702 22.9456 22.2341 22.8865 22.2757 22.8167C23.1013 21.4107 24.2966 21.5503 25.4014 22.3526C26.1275 22.8789 26.8313 23.434 27.55 23.9709C28.6399 24.7914 28.631 25.5619 27.9658 26.6721ZM21.7589 12.1164C21.4812 12.1164 21.2021 12.1392 20.9289 12.1862C20.4656 12.2666 20.029 11.9465 19.9518 11.4733C19.8746 11.0016 20.1864 10.5542 20.6497 10.4754C21.0135 10.4147 21.3877 10.3828 21.7589 10.3828C25.434 10.3828 28.4246 13.4375 28.4246 17.1913C28.4246 17.572 28.3934 17.9542 28.3326 18.3258C28.2628 18.7489 27.9034 19.0492 27.4966 19.0492C27.4505 19.0492 27.403 19.0462 27.3555 19.0371C26.8937 18.9567 26.5819 18.5108 26.6591 18.0391C26.7051 17.7631 26.7274 17.4779 26.7274 17.1928C26.7274 14.393 24.4985 12.1164 21.7589 12.1164ZM25.4548 17.7494C25.4548 18.2272 25.0747 18.6155 24.6069 18.6155C24.1392 18.6155 23.7591 18.2272 23.7591 17.7494C23.7591 16.3161 22.6172 15.1498 21.214 15.1498C20.7462 15.1498 20.3661 14.7615 20.3661 14.2838C20.3661 13.806 20.7462 13.4177 21.214 13.4177C23.5512 13.4162 25.4548 15.3606 25.4548 17.7494ZM31.1657 18.8066C31.0766 19.21 30.7277 19.4815 30.3387 19.4815C30.2763 19.4815 30.2124 19.4739 30.1501 19.4603C29.6927 19.3541 29.4061 18.89 29.5101 18.4244C29.6333 17.8708 29.6957 17.299 29.6957 16.7257C29.6957 12.5123 26.3398 9.08303 22.2133 9.08303C21.6505 9.08303 21.0922 9.14673 20.5502 9.27261C20.0958 9.3803 19.6385 9.08606 19.536 8.61892C19.4321 8.15178 19.7187 7.68767 20.176 7.58301C20.8412 7.4268 21.5273 7.34944 22.2163 7.34944C27.2768 7.34944 31.3944 11.5552 31.3944 16.7241C31.3944 17.4279 31.3172 18.1286 31.1657 18.8066Z" fill="#D0A258"/>
</svg>
