<svg width="26" height="27" viewBox="0 0 26 27" fill="none" xmlns="http://www.w3.org/2000/svg">
<path d="M5.928 7.44702C5.68396 7.44702 5.45688 7.51551 5.26492 7.63549L12.3889 13.8365C12.7669 14.1653 13.2193 14.1653 13.598 13.8365L20.735 7.63549C20.5432 7.5155 20.316 7.44702 20.0719 7.44702H5.92789H5.928ZM4.75146 8.29202C4.70822 8.41883 4.67993 8.55304 4.67993 8.69495V17.8469C4.67993 18.5383 5.23648 19.095 5.92801 19.095H20.072C20.7633 19.095 21.3201 18.5385 21.3201 17.8469V8.69495C21.3201 8.55305 21.2918 8.41884 21.2486 8.29187L14.1439 14.4606C13.4815 15.0357 12.5051 15.0367 11.8429 14.4606L4.75122 8.29187L4.75146 8.29202Z" fill="white"/>
</svg>
