<svg width="25" height="25" viewBox="0 0 25 25" fill="none" xmlns="http://www.w3.org/2000/svg">
<path d="M5.05363 12.8165C5.81131 14.2294 6.79527 15.5193 7.96963 16.6393C9.13563 17.7674 10.4794 18.712 11.9518 19.4387C13.3884 20.158 14.9502 20.6187 16.5596 20.798C16.7037 20.8126 16.8487 20.8197 16.9936 20.8192C18.0864 20.8136 19.132 20.3908 19.8996 19.6441L20.9576 18.6265C21.2507 18.3455 21.4155 17.9643 21.4155 17.5668C21.4155 17.1691 21.2507 16.7878 20.9576 16.5069L18.8096 14.445C18.517 14.1636 18.1199 14.0055 17.7057 14.0055C17.2914 14.0055 16.8943 14.1636 16.6016 14.445L15.3199 15.6739C15.1309 15.8552 14.8528 15.9111 14.6131 15.8057C13.3472 15.2493 12.1969 14.4748 11.2197 13.5196C10.2358 12.592 9.4361 11.5021 8.858 10.3031C8.73685 10.0518 8.79897 9.7532 9.00021 9.56001L10.2557 8.35477C10.5486 8.07339 10.7131 7.69182 10.7131 7.29394C10.7131 6.89615 10.5486 6.51462 10.2557 6.23321L8.10763 4.17085C7.81508 3.88947 7.41791 3.73145 7.0037 3.73145C6.58948 3.73145 6.19231 3.88948 5.89963 4.17085L4.83963 5.18845C3.9522 6.02564 3.50984 7.20486 3.63763 8.39297C3.82443 9.93809 4.30434 11.4374 5.05363 12.8165Z" fill="white"/>
<path d="M5.05363 12.8165C5.81131 14.2294 6.79527 15.5193 7.96963 16.6393C9.13563 17.7674 10.4794 18.712 11.9518 19.4387C13.3884 20.158 14.9502 20.6187 16.5596 20.798C16.7037 20.8126 16.8487 20.8197 16.9936 20.8192C18.0864 20.8136 19.132 20.3908 19.8996 19.6441L20.9576 18.6265C21.2507 18.3455 21.4155 17.9643 21.4155 17.5668C21.4155 17.1691 21.2507 16.7878 20.9576 16.5069L18.8096 14.445C18.517 14.1636 18.1199 14.0055 17.7057 14.0055C17.2914 14.0055 16.8943 14.1636 16.6016 14.445L15.3199 15.6739C15.1309 15.8552 14.8528 15.9111 14.6131 15.8057C13.3472 15.2493 12.1969 14.4748 11.2197 13.5196C10.2358 12.592 9.4361 11.5021 8.858 10.3031C8.73685 10.0518 8.79897 9.7532 9.00021 9.56001L10.2557 8.35477C10.5486 8.07339 10.7131 7.69182 10.7131 7.29394C10.7131 6.89615 10.5486 6.51462 10.2557 6.23321L8.10763 4.17085C7.81508 3.88947 7.41791 3.73145 7.0037 3.73145C6.58948 3.73145 6.19231 3.88948 5.89963 4.17085L4.83963 5.18845C3.9522 6.02564 3.50984 7.20486 3.63763 8.39297C3.82443 9.93809 4.30434 11.4374 5.05363 12.8165Z" stroke="white"/>
</svg>
