<svg width="35" height="36" viewBox="0 0 35 36" fill="none" xmlns="http://www.w3.org/2000/svg">
<path d="M17.0526 35.3684C26.4705 35.3684 34.1053 27.4509 34.1053 17.6842C34.1053 7.91749 26.4705 0 17.0526 0C7.63472 0 0 7.91749 0 17.6842C0 27.4509 7.63472 35.3684 17.0526 35.3684Z" fill="#D0A258"/>
<path fill-rule="evenodd" clip-rule="evenodd" d="M7.71914 17.4974C12.6903 15.2513 16.0052 13.7706 17.6639 13.0551C22.3995 11.0124 23.3836 10.6576 24.025 10.6459C24.166 10.6433 24.4814 10.6796 24.6858 10.8515C24.8583 10.9966 24.9057 11.1928 24.9285 11.3304C24.9512 11.468 24.9795 11.7816 24.957 12.0266C24.7003 14.8229 23.5899 21.6087 23.025 24.7406C22.7859 26.0658 22.3153 26.5102 21.8596 26.5537C20.8693 26.6482 20.1173 25.875 19.1582 25.223C17.6574 24.2027 16.8095 23.5676 15.3526 22.572C13.669 21.4214 14.7604 20.789 15.7199 19.7555C15.971 19.4851 20.3342 15.3694 20.4187 14.9961C20.4292 14.9494 20.439 14.7753 20.3393 14.6834C20.2396 14.5915 20.0925 14.6229 19.9863 14.6479C19.8357 14.6834 17.4381 16.3268 12.7934 19.5783C12.1128 20.0629 11.4964 20.299 10.9441 20.2867C10.3352 20.273 9.16399 19.9296 8.29331 19.6361C7.22539 19.2761 6.37662 19.0858 6.45053 18.4744C6.48903 18.156 6.9119 17.8303 7.71914 17.4974Z" fill="white"/>
</svg>
