<svg width="29" height="30" viewBox="0 0 29 30" fill="none" xmlns="http://www.w3.org/2000/svg">
<path d="M14.319 29.6987C22.2272 29.6987 28.6381 23.0504 28.6381 14.8494C28.6381 6.64829 22.2272 0 14.319 0C6.41085 0 0 6.64829 0 14.8494C0 23.0504 6.41085 29.6987 14.319 29.6987Z" fill="#D0A258"/>
<path fill-rule="evenodd" clip-rule="evenodd" d="M6.48162 14.6925C10.6559 12.8065 13.4394 11.5631 14.8322 10.9623C18.8087 9.24711 19.635 8.94915 20.1736 8.93931C20.292 8.93715 20.5569 8.96759 20.7284 9.11196C20.8733 9.23386 20.9131 9.39852 20.9322 9.5141C20.9513 9.62967 20.975 9.89295 20.9562 10.0987C20.7407 12.4467 19.8082 18.1448 19.3339 20.7746C19.1332 21.8874 18.7379 22.2605 18.3553 22.297C17.5238 22.3764 16.8923 21.7271 16.087 21.1796C14.8267 20.3229 14.1147 19.7896 12.8914 18.9536C11.4777 17.9875 12.3942 17.4565 13.1998 16.5887C13.4107 16.3616 17.0745 12.9057 17.1454 12.5922C17.1542 12.553 17.1625 12.4068 17.0787 12.3296C16.995 12.2525 16.8714 12.2788 16.7823 12.2998C16.6559 12.3296 14.6426 13.7096 10.7424 16.4398C10.171 16.8467 9.65334 17.045 9.18958 17.0346C8.67832 17.0232 7.69485 16.7349 6.96375 16.4884C6.06702 16.1861 5.35431 16.0263 5.41637 15.5129C5.4487 15.2455 5.80378 14.972 6.48162 14.6925Z" fill="white"/>
</svg>
