<svg width="34" height="34" viewBox="0 0 34 34" fill="none" xmlns="http://www.w3.org/2000/svg">
<path d="M15.5708 12.7129L23.2694 9.82582C23.8159 9.62086 24.3853 10.068 24.3157 10.6476L23.6342 16.3275L22.9127 22.3397C22.8381 22.9611 22.6569 23.5651 22.377 24.1249C22.0111 24.8568 21.0864 25.1023 20.4056 24.6484L14.1888 20.5039C13.7634 20.2203 13.7222 19.6106 14.1056 19.2723L20.5287 13.6048C20.7353 13.4224 20.4914 13.1013 20.2603 13.2515L12.6062 18.2267C12.0005 18.6204 11.2936 18.83 10.5711 18.83C10.5677 18.83 10.5642 18.8295 10.5609 18.8286L6.88828 17.7792C6.74522 17.7384 6.60626 17.6843 6.47318 17.6178C6.10939 17.4359 6.12127 16.9127 6.49295 16.7475L15.5708 12.7129Z" fill="white"/>
<rect x="1.33464" y="1.81267" width="30.5662" height="30.5666" rx="15.2831" stroke="white" stroke-width="2.66928"/>
</svg>
