<svg width="18" height="18" viewBox="0 0 18 18" fill="none" xmlns="http://www.w3.org/2000/svg">
<path d="M9.01822 0.820068C4.49342 0.820068 0.819824 4.49367 0.819824 9.01847C0.819824 13.5433 4.49342 17.2169 9.01822 17.2169C13.543 17.2169 17.2166 13.5433 17.2166 9.01847C17.2166 4.49367 13.543 0.820068 9.01822 0.820068ZM12.7367 10.1385H8.63746C8.25668 10.1385 7.96542 9.84722 7.96542 9.46643V4.76243C7.96542 4.38165 8.25667 4.09039 8.63746 4.09039C9.01826 4.09039 9.30951 4.38164 9.30951 4.76243V8.79443H12.759C13.1398 8.79443 13.4311 9.08568 13.4311 9.46647C13.4087 9.82475 13.1175 10.1383 12.7367 10.1383L12.7367 10.1385Z" fill="#1C4644"/>
</svg>
