<svg width="35" height="35" viewBox="0 0 35 35" fill="none" xmlns="http://www.w3.org/2000/svg">
<path d="M21.3735 13.8259C21.3848 14.0609 21.2036 14.2605 20.9687 14.2719C20.7337 14.2833 20.5341 14.102 20.5227 13.8671C20.4524 12.4116 19.7763 11.7134 18.3787 11.6391C18.1439 11.6266 17.9636 11.4261 17.976 11.1912C17.9885 10.9564 18.189 10.7761 18.4239 10.7886C20.263 10.8863 21.2823 11.9389 21.3735 13.8259Z" fill="white"/>
<path d="M23.1214 15.005C23.3565 15.0103 23.5515 14.824 23.5568 14.5889C23.5947 12.9243 23.0961 11.5188 22.0603 10.3902C21.0225 9.25965 19.5913 8.63365 17.7796 8.50501C17.545 8.48835 17.3413 8.66504 17.3247 8.89966C17.308 9.13428 17.4847 9.33798 17.7193 9.35464C19.324 9.46858 20.5505 10.005 21.4327 10.9662C22.3157 11.9282 22.7382 13.1193 22.7053 14.5695C22.6999 14.8047 22.8862 14.9996 23.1214 15.005Z" fill="white"/>
<path d="M25.7955 15.4502C25.7972 15.6854 25.608 15.8775 25.3728 15.8793C25.1376 15.881 24.9455 15.6918 24.9437 15.4566C24.9243 12.8649 24.1595 10.8504 22.6519 9.3763C21.1391 7.90191 19.2586 7.15689 16.9989 7.14243C16.7637 7.14093 16.5742 6.94904 16.5757 6.71383C16.5772 6.47863 16.7691 6.28918 17.0043 6.29068C19.4806 6.30652 21.5731 7.13553 23.2469 8.7668C24.9266 10.4092 25.7745 12.6423 25.7955 15.4502Z" fill="white"/>
<path d="M19.4069 19.2028C19.0886 19.602 18.4872 19.5515 18.4872 19.5515C14.1112 18.4347 12.9389 14.0032 12.9389 14.0032C12.9389 14.0032 12.8884 13.4069 13.2876 13.0835L14.0759 12.4569C14.47 12.1537 14.7176 11.421 14.3184 10.7035C14.0961 10.3043 13.6514 9.59178 13.3229 9.14206C12.9743 8.66706 12.1658 7.69686 12.1607 7.69181C11.7716 7.22692 11.1956 7.12081 10.5892 7.4341C10.5892 7.4341 10.5842 7.43915 10.5791 7.43915C10.003 7.76255 9.46741 8.19712 8.96716 8.74791L8.95705 8.75802C8.58312 9.20775 8.36584 9.65242 8.3153 10.087C8.3052 10.1375 8.30014 10.2032 8.3052 10.279C8.30014 10.471 8.33046 10.658 8.3911 10.845L8.41131 10.8601C8.59828 11.5322 9.07327 12.6489 10.0991 14.5135C10.7661 15.7212 11.4482 16.7318 12.1254 17.5808C12.4791 18.0305 12.8833 18.4903 13.3482 18.9603L13.5301 19.1422C14.0001 19.6071 14.4599 20.0113 14.9096 20.365C15.7585 21.0422 16.7641 21.7243 17.9769 22.3913C19.8415 23.4171 20.9582 23.8921 21.6303 24.0791L21.6454 24.0993C21.8324 24.1599 22.0194 24.1852 22.2114 24.1852C22.2872 24.1902 22.3529 24.1852 22.4034 24.1751C22.838 24.1246 23.2826 23.9073 23.7324 23.5333L23.7425 23.5232C24.2933 23.023 24.7278 22.4823 25.0512 21.9113C25.0512 21.9113 25.0563 21.9062 25.0563 21.9012C25.3696 21.2948 25.2635 20.7188 24.7986 20.3297C24.7986 20.3297 23.8233 19.5161 23.3483 19.1674C22.9037 18.839 22.1861 18.3994 21.7869 18.172C21.0694 17.7728 20.3367 18.0204 20.0335 18.4145L19.4069 19.2028Z" fill="white"/>
<path fill-rule="evenodd" clip-rule="evenodd" d="M17.8505 0.283936C25.3797 0.319307 28.7602 2.77512 29.599 3.5432C32.3732 5.95354 33.9144 11.2997 32.8785 19.7435C31.9672 27.204 26.7634 28.5276 25.0177 28.9716C24.8468 29.0151 24.709 29.0501 24.6116 29.0817C24.1417 29.2333 19.983 30.2742 14.5812 29.8194C13.9849 30.5117 13.1916 31.4213 12.6206 32.0377C12.4481 32.2236 12.2865 32.4071 12.1322 32.5825C11.3507 33.4704 10.7528 34.1497 9.84135 33.867C8.93684 33.5891 8.98737 32.2146 8.98737 32.2146L8.99242 28.824H8.98737C1.08429 26.6006 1.20051 18.4095 1.29147 14.0335C1.37737 9.65747 2.22629 6.1304 4.63663 3.72006C8.96716 -0.251695 17.8505 0.283936 17.8505 0.283936ZM24.1212 26.6098C25.6049 26.2655 29.7485 25.3039 30.5137 19.1371C31.3878 12.083 30.1903 7.26735 27.8456 5.25115C27.1382 4.60941 24.0861 2.69427 17.7141 2.66395C17.7141 2.66395 10.1698 2.16875 6.50629 5.4836C4.46988 7.49474 3.78265 10.4862 3.70686 14.1396L3.6986 14.5117C3.61308 18.2479 3.46237 24.8325 9.92219 26.6259C9.92219 26.6259 9.89693 31.8053 9.89188 32.2601C9.89188 32.5784 9.94241 32.7957 10.1243 32.8412C10.2557 32.8766 10.4528 32.8058 10.6195 32.6391C11.6857 31.5627 15.1067 27.4394 15.1067 27.4394C19.6949 27.7426 23.3433 26.833 23.7374 26.7067C23.8282 26.6778 23.9588 26.6475 24.1212 26.6098Z" fill="white"/>
<path d="M21.3735 13.8259C21.3848 14.0609 21.2036 14.2605 20.9687 14.2719C20.7337 14.2833 20.5341 14.102 20.5227 13.8671C20.4524 12.4116 19.7763 11.7134 18.3787 11.6391C18.1439 11.6266 17.9636 11.4261 17.976 11.1912C17.9885 10.9564 18.189 10.7761 18.4239 10.7886C20.263 10.8863 21.2823 11.9389 21.3735 13.8259Z" stroke="white" stroke-width="0.284757"/>
<path d="M23.1214 15.005C23.3565 15.0103 23.5515 14.824 23.5568 14.5889C23.5947 12.9243 23.0961 11.5188 22.0603 10.3902C21.0225 9.25965 19.5913 8.63365 17.7796 8.50501C17.545 8.48835 17.3413 8.66504 17.3247 8.89966C17.308 9.13428 17.4847 9.33798 17.7193 9.35464C19.324 9.46858 20.5505 10.005 21.4327 10.9662C22.3157 11.9282 22.7382 13.1193 22.7053 14.5695C22.6999 14.8047 22.8862 14.9996 23.1214 15.005Z" stroke="white" stroke-width="0.284757"/>
<path d="M25.7955 15.4502C25.7972 15.6854 25.608 15.8775 25.3728 15.8793C25.1376 15.881 24.9455 15.6918 24.9437 15.4566C24.9243 12.8649 24.1595 10.8504 22.6519 9.3763C21.1391 7.90191 19.2586 7.15689 16.9989 7.14243C16.7637 7.14093 16.5742 6.94904 16.5757 6.71383C16.5772 6.47863 16.7691 6.28918 17.0043 6.29068C19.4806 6.30652 21.5731 7.13553 23.2469 8.7668C24.9266 10.4092 25.7745 12.6423 25.7955 15.4502Z" stroke="white" stroke-width="0.284757"/>
<path d="M19.4069 19.2028C19.0886 19.602 18.4872 19.5515 18.4872 19.5515C14.1112 18.4347 12.9389 14.0032 12.9389 14.0032C12.9389 14.0032 12.8884 13.4069 13.2876 13.0835L14.0759 12.4569C14.47 12.1537 14.7176 11.421 14.3184 10.7035C14.0961 10.3043 13.6514 9.59178 13.3229 9.14206C12.9743 8.66706 12.1658 7.69686 12.1607 7.69181C11.7716 7.22692 11.1956 7.12081 10.5892 7.4341C10.5892 7.4341 10.5842 7.43915 10.5791 7.43915C10.003 7.76255 9.46741 8.19712 8.96716 8.74791L8.95705 8.75802C8.58312 9.20775 8.36584 9.65242 8.3153 10.087C8.3052 10.1375 8.30014 10.2032 8.3052 10.279C8.30014 10.471 8.33046 10.658 8.3911 10.845L8.41131 10.8601C8.59828 11.5322 9.07327 12.6489 10.0991 14.5135C10.7661 15.7212 11.4482 16.7318 12.1254 17.5808C12.4791 18.0305 12.8833 18.4903 13.3482 18.9603L13.5301 19.1422C14.0001 19.6071 14.4599 20.0113 14.9096 20.365C15.7585 21.0422 16.7641 21.7243 17.9769 22.3913C19.8415 23.4171 20.9582 23.8921 21.6303 24.0791L21.6454 24.0993C21.8324 24.1599 22.0194 24.1852 22.2114 24.1852C22.2872 24.1902 22.3529 24.1852 22.4034 24.1751C22.838 24.1246 23.2826 23.9073 23.7324 23.5333L23.7425 23.5232C24.2933 23.023 24.7278 22.4823 25.0512 21.9113C25.0512 21.9113 25.0563 21.9062 25.0563 21.9012C25.3696 21.2948 25.2635 20.7188 24.7986 20.3297C24.7986 20.3297 23.8233 19.5161 23.3483 19.1674C22.9037 18.839 22.1861 18.3994 21.7869 18.172C21.0694 17.7728 20.3367 18.0204 20.0335 18.4145L19.4069 19.2028Z" stroke="white" stroke-width="0.284757"/>
<path fill-rule="evenodd" clip-rule="evenodd" d="M17.8505 0.283936C25.3797 0.319307 28.7602 2.77512 29.599 3.5432C32.3732 5.95354 33.9144 11.2997 32.8785 19.7435C31.9672 27.204 26.7634 28.5276 25.0177 28.9716C24.8468 29.0151 24.709 29.0501 24.6116 29.0817C24.1417 29.2333 19.983 30.2742 14.5812 29.8194C13.9849 30.5117 13.1916 31.4213 12.6206 32.0377C12.4481 32.2236 12.2865 32.4071 12.1322 32.5825C11.3507 33.4704 10.7528 34.1497 9.84135 33.867C8.93684 33.5891 8.98737 32.2146 8.98737 32.2146L8.99242 28.824H8.98737C1.08429 26.6006 1.20051 18.4095 1.29147 14.0335C1.37737 9.65747 2.22629 6.1304 4.63663 3.72006C8.96716 -0.251695 17.8505 0.283936 17.8505 0.283936ZM24.1212 26.6098C25.6049 26.2655 29.7485 25.3039 30.5137 19.1371C31.3878 12.083 30.1903 7.26735 27.8456 5.25115C27.1382 4.60941 24.0861 2.69427 17.7141 2.66395C17.7141 2.66395 10.1698 2.16875 6.50629 5.4836C4.46988 7.49474 3.78265 10.4862 3.70686 14.1396L3.6986 14.5117C3.61308 18.2479 3.46237 24.8325 9.92219 26.6259C9.92219 26.6259 9.89693 31.8053 9.89188 32.2601C9.89188 32.5784 9.94241 32.7957 10.1243 32.8412C10.2557 32.8766 10.4528 32.8058 10.6195 32.6391C11.6857 31.5627 15.1067 27.4394 15.1067 27.4394C19.6949 27.7426 23.3433 26.833 23.7374 26.7067C23.8282 26.6778 23.9588 26.6475 24.1212 26.6098Z" stroke="white" stroke-width="0.284757"/>
</svg>
