<svg width="36" height="37" viewBox="0 0 36 37" fill="none" xmlns="http://www.w3.org/2000/svg">
<path d="M31.2864 9.96546C30.7765 8.10733 29.7677 6.63636 28.2877 5.59586C26.4199 4.28154 24.2716 3.81541 22.4163 3.53268C19.849 3.1417 17.5236 3.08693 15.3091 3.3633C13.2319 3.62311 11.6683 4.03829 10.2407 4.70818C7.44395 6.01995 5.76567 8.14426 5.25321 11.02C5.00384 12.4158 4.83676 13.6779 4.73951 14.8814C4.51507 17.6642 4.71831 20.1272 5.36169 22.4095C5.98762 24.6344 7.08236 26.2251 8.70827 27.2694C9.12347 27.5356 9.65214 27.7279 10.1658 27.9138C10.4227 28.0068 10.6696 28.0985 10.8853 28.1953V32.691C10.8853 33.2793 11.3516 33.7557 11.9277 33.7557C12.1995 33.7557 12.4601 33.6474 12.6546 33.4538L16.7156 29.4192C16.8927 29.2128 16.8927 29.2128 17.0747 29.209C18.4625 29.181 19.8801 29.1262 21.2891 29.0486C22.996 28.953 24.9736 28.7849 26.8364 27.9915C28.5408 27.2643 29.7852 26.1104 30.5321 24.5631C31.3114 22.9482 31.7752 21.1983 31.9485 19.2154C32.2527 15.7283 32.0358 12.7024 31.2864 9.96546ZM24.2155 23.236C23.8078 23.9174 23.1968 24.3886 22.4786 24.6942C21.9537 24.9184 21.4175 24.8713 20.9001 24.6471C16.556 22.7699 13.1508 19.8101 10.899 15.5577C10.4352 14.6815 10.1122 13.7276 9.74191 12.8017C9.66586 12.6107 9.67209 12.3878 9.63842 12.1802C9.67084 10.6838 10.7943 9.84192 11.9289 9.58721C12.3628 9.48915 12.7468 9.6458 13.0685 9.96037C13.9588 10.8289 14.6633 11.8351 15.1932 12.9634C15.4251 13.4588 15.3204 13.897 14.9251 14.265C14.8441 14.3414 14.758 14.4127 14.6695 14.4802C13.768 15.1731 13.6359 15.6965 14.1159 16.7396C14.9338 18.5136 16.2917 19.7044 18.0485 20.4431C18.5111 20.6379 18.9475 20.5411 19.3016 20.1578C19.349 20.1069 19.4026 20.0572 19.4375 19.9986C20.1308 18.818 21.1345 18.9352 22.0621 19.6089C22.6719 20.0508 23.2629 20.5169 23.8664 20.9678C24.7815 21.6568 24.7741 22.3038 24.2155 23.236ZM19.0036 11.0136C18.7704 11.0136 18.536 11.0327 18.3066 11.0722C17.9176 11.1397 17.551 10.871 17.4862 10.4736C17.4213 10.0775 17.6832 9.70183 18.0722 9.63561C18.3777 9.58466 18.6919 9.55792 19.0036 9.55792C22.0896 9.55792 24.6008 12.1229 24.6008 15.275C24.6008 15.5946 24.5746 15.9156 24.5234 16.2276C24.4648 16.5829 24.1631 16.8351 23.8215 16.8351C23.7828 16.8351 23.7429 16.8325 23.703 16.8249C23.3152 16.7574 23.0534 16.383 23.1182 15.9869C23.1569 15.7551 23.1756 15.5157 23.1756 15.2762C23.1756 12.9252 21.3041 11.0136 19.0036 11.0136ZM22.107 15.7436C22.107 16.1448 21.7878 16.4708 21.3951 16.4708C21.0023 16.4708 20.6831 16.1448 20.6831 15.7436C20.6831 14.5401 19.7243 13.5607 18.546 13.5607C18.1532 13.5607 17.834 13.2347 17.834 12.8335C17.834 12.4324 18.1532 12.1063 18.546 12.1063C20.5086 12.1051 22.107 13.7378 22.107 15.7436ZM26.9025 16.6313C26.8277 16.9701 26.5346 17.198 26.208 17.198C26.1556 17.198 26.102 17.1917 26.0496 17.1802C25.6656 17.0911 25.4249 16.7013 25.5122 16.3104C25.6157 15.8455 25.6681 15.3654 25.6681 14.884C25.6681 11.346 22.8502 8.46647 19.3851 8.46647C18.9126 8.46647 18.4438 8.51996 17.9887 8.62567C17.6071 8.71609 17.2231 8.46902 17.137 8.07676C17.0498 7.6845 17.2904 7.29479 17.6744 7.20692C18.233 7.07574 18.8091 7.01079 19.3876 7.01079C23.6369 7.01079 27.0945 10.5424 27.0945 14.8827C27.0945 15.4736 27.0296 16.062 26.9025 16.6313Z" fill="#D0A258"/>
</svg>
