<svg width="37" height="37" viewBox="0 0 37 37" fill="none" xmlns="http://www.w3.org/2000/svg">
<path d="M10.2345 31.0882L10.7904 31.4177C13.1265 32.8039 15.8047 33.5371 18.5357 33.5386H18.5417C26.929 33.5386 33.7554 26.7138 33.759 18.3258C33.7602 14.2608 32.1791 10.4385 29.3059 7.5632C26.4326 4.688 22.6123 3.10358 18.5474 3.10191C10.1535 3.10191 3.32726 9.92574 3.32393 18.3135C3.32278 21.1878 4.12698 23.987 5.65039 26.4093L6.01259 26.9847L4.47487 32.5983L10.2345 31.0882ZM0.0790634 36.9467L2.67652 27.4625C1.07445 24.6869 0.231545 21.538 0.232774 18.3122C0.236812 8.22071 8.44966 0.010498 18.5417 0.010498C23.4391 0.0126049 28.0358 1.91875 31.4928 5.37807C34.9492 8.83766 36.852 13.4362 36.8504 18.3271C36.8461 28.4181 28.6321 36.6298 18.5417 36.6298C18.541 36.6298 18.5421 36.6298 18.5417 36.6298H18.5338C15.4699 36.6285 12.4589 35.8601 9.78486 34.4017L0.0790634 36.9467Z" fill="white"/>
<path d="M0.851639 18.2974C0.851639 21.4353 1.67176 24.4662 3.24069 27.1405L0.709011 36.3044L10.0869 33.8441C12.6543 35.2704 15.5782 35.9835 18.5378 35.9835C28.2723 35.9835 36.2239 28.0676 36.2239 18.3331C36.2239 13.5906 34.3697 9.16909 31.0535 5.81729C27.7017 2.50114 23.2802 0.646954 18.5378 0.646954C8.80326 0.646954 0.851639 8.56292 0.851639 18.2974Z" fill="#D0A258"/>
<path d="M0.21999 18.2835C0.21999 21.5339 1.06952 24.6735 2.69471 27.4437L0.0722427 36.9363L9.78646 34.3877C12.4459 35.8651 15.4746 36.6039 18.5403 36.6039C28.6239 36.6039 36.8607 28.404 36.8607 18.3205C36.8607 13.4079 34.94 8.82786 31.5049 5.35586C28.0329 1.9208 23.4528 0.000118256 18.5403 0.000118256C8.45675 0.000118256 0.21999 8.19995 0.21999 18.2835ZM6.01896 26.9635L5.6496 26.4095C4.13522 23.9717 3.32263 21.1645 3.32263 18.3205C3.32263 9.89901 10.1558 3.10276 18.5403 3.10276C22.6033 3.10276 26.4447 4.69101 29.2887 7.5351C32.1698 10.4161 33.758 14.2575 33.758 18.3205C33.758 26.705 26.9248 33.5382 18.5403 33.5382C15.807 33.5382 13.1107 32.7994 10.7837 31.3959L10.2297 31.0634L4.46765 32.5778L6.01896 26.9635Z" fill="white"/>
<path fill-rule="evenodd" clip-rule="evenodd" d="M13.9657 10.6676C13.623 9.90579 13.2623 9.89052 12.9363 9.87717C12.6697 9.86576 12.3644 9.86646 12.0596 9.86646C11.7546 9.86646 11.2589 9.98102 10.8398 10.4388C10.4204 10.8966 9.23846 12.0032 9.23846 14.2539C9.23846 16.5049 10.8779 18.6798 11.1064 18.9852C11.3352 19.2903 14.2712 24.0566 18.9211 25.8904C22.7855 27.4142 23.5719 27.1111 24.4107 27.0349C25.2495 26.9586 27.1172 25.9285 27.4985 24.8602C27.8797 23.7921 27.8797 22.8766 27.7654 22.6853C27.651 22.4946 27.346 22.3802 26.8885 22.1514C26.431 21.9227 24.1819 20.8158 23.7625 20.6633C23.3431 20.5108 23.0381 20.4346 22.7331 20.8925C22.4281 21.3501 21.5519 22.3802 21.2849 22.6853C21.0181 22.991 20.7512 23.0291 20.2937 22.8004C19.8361 22.5709 18.3628 22.0883 16.6149 20.5299C15.2549 19.3174 14.3368 17.82 14.0699 17.362C13.803 16.9045 14.0413 16.6567 14.2708 16.4286C14.4762 16.2236 14.7283 15.8946 14.9571 15.6275C15.1853 15.3604 15.2616 15.1697 15.4141 14.8646C15.5666 14.5592 15.4904 14.292 15.376 14.0633C15.2616 13.8345 14.3725 11.5721 13.9657 10.6676Z" fill="white"/>
</svg>
