<svg width="44" height="44" viewBox="0 0 44 44" fill="none" xmlns="http://www.w3.org/2000/svg">
<path d="M22.0692 5.5C13.0123 5.5 5.64158 12.8359 5.63839 21.8515C5.63626 24.7346 6.39419 27.5484 7.83129 30.0267L5.5 38.5L14.2109 36.2263C16.634 37.536 19.3282 38.2192 22.0628 38.2173H22.0692C31.1261 38.2173 38.4968 30.8803 38.5 21.8647C38.5021 17.4977 36.7946 13.387 33.6916 10.2971C30.5896 7.2061 26.4646 5.5011 22.0692 5.5ZM22.0692 35.4552H22.0639C19.6134 35.4552 17.2097 34.7996 15.1126 33.561L14.6123 33.2662L9.4451 34.6148L10.8247 29.5988L10.5 29.0851C9.13628 26.9359 8.41032 24.4215 8.41145 21.8515C8.41464 14.3572 14.542 8.2621 22.0745 8.2621C25.7215 8.2632 29.1504 9.6789 31.7297 12.2474C34.309 14.8159 35.728 18.2314 35.7259 21.8636C35.7227 29.3579 29.5964 35.4552 22.0681 35.4552H22.0692ZM29.5602 25.2747C29.1493 25.0712 27.131 24.0823 26.7541 23.9448C26.3784 23.8095 26.1048 23.7391 25.8312 24.1483C25.5587 24.5575 24.7709 25.4782 24.5325 25.7499C24.2919 26.0227 24.0524 26.0557 23.6415 25.8522C23.2306 25.6476 21.9074 25.2164 20.3404 23.8238C19.1194 22.7414 18.2955 21.4038 18.056 20.9935C17.8165 20.5854 18.0304 20.3643 18.2359 20.1608C18.42 19.9793 18.6468 19.6845 18.8512 19.4458C19.0555 19.2071 19.1237 19.0366 19.2621 18.7638C19.3983 18.4921 19.3302 18.2523 19.2269 18.0488C19.1237 17.8431 18.304 15.8323 17.9602 15.015C17.628 14.2186 17.2895 14.3253 17.0372 14.3121C16.7977 14.3011 16.5252 14.2978 16.2495 14.2978C15.978 14.2978 15.532 14.4001 15.1552 14.8093C14.7794 15.2185 13.7181 16.2063 13.7181 18.2171C13.7181 20.229 15.1892 22.1716 15.3947 22.4444C15.6001 22.7161 18.2902 26.8444 22.4088 28.6154C23.3881 29.0345 24.1525 29.2864 24.7496 29.4756C25.7333 29.7869 26.6285 29.7418 27.3354 29.6373C28.1231 29.5196 29.7646 28.6495 30.1052 27.6958C30.448 26.7421 30.448 25.9237 30.3458 25.7532C30.2457 25.5827 29.9711 25.4804 29.5602 25.2747Z" fill="white"/>
</svg>
