<svg width="44" height="44" viewBox="0 0 44 44" fill="none" xmlns="http://www.w3.org/2000/svg">
<path d="M12.1882 37.0231L12.8502 37.4156C15.6322 39.0664 18.8217 39.9395 22.0742 39.9413H22.0813C32.0697 39.9413 40.1993 31.8136 40.2036 21.8243C40.2051 16.9832 38.3222 12.4312 34.9005 9.00702C31.4786 5.58292 26.9289 3.69603 22.0881 3.69404C12.0917 3.69404 3.9623 11.8206 3.95832 21.8096C3.95696 25.2326 4.91468 28.5663 6.72892 31.451L7.16027 32.1362L5.32899 38.8215L12.1882 37.0231ZM0.0939941 44L3.18732 32.7053C1.27941 29.3997 0.275585 25.6498 0.277049 21.8081C0.281858 9.79005 10.0626 0.0124512 22.0813 0.0124512C27.9136 0.0149602 33.3879 2.28501 37.5048 6.40474C41.6211 10.5248 43.8872 16.0013 43.8852 21.8258C43.8801 33.8432 34.098 43.6226 22.0813 43.6226C22.0804 43.6226 22.0818 43.6226 22.0813 43.6226H22.0719C18.423 43.6211 14.8373 42.706 11.6527 40.9692L0.0939941 44Z" fill="white"/>
<path d="M1.01411 21.7906C1.01411 25.5275 1.9908 29.137 3.85925 32.3219L0.84425 43.2354L12.0125 40.3053C15.0699 42.0039 18.5521 42.8532 22.0766 42.8532C33.6695 42.8532 43.1392 33.426 43.1392 21.8331C43.1392 16.1853 40.931 10.9197 36.9818 6.92798C32.9901 2.97876 27.7244 0.770588 22.0766 0.770588C10.4838 0.770588 1.01411 10.1978 1.01411 21.7906Z" fill="#D0A258"/>
<path d="M0.261822 21.7738C0.261822 25.6447 1.27354 29.3837 3.20899 32.6828L0.0858688 43.9875L11.6546 40.9524C14.8217 42.7119 18.4287 43.5917 22.0796 43.5917C34.0882 43.5917 43.8975 33.8264 43.8975 21.8178C43.8975 15.9675 41.6101 10.513 37.5193 6.3782C33.3844 2.28736 27.93 7.62939e-06 22.0796 7.62939e-06C10.071 7.62939e-06 0.261822 9.76524 0.261822 21.7738ZM7.16786 32.1109L6.72799 31.4511C4.9245 28.5479 3.95678 25.2049 3.95678 21.8178C3.95678 11.7887 12.0945 3.69496 22.0796 3.69496C26.9183 3.69496 31.493 5.58643 34.88 8.97346C38.311 12.4045 40.2025 16.9792 40.2025 21.8178C40.2025 31.803 32.0648 39.9407 22.0796 39.9407C18.8246 39.9407 15.6135 39.0609 12.8423 37.3894L12.1824 36.9935L5.32039 38.797L7.16786 32.1109Z" fill="#F8F8F8"/>
<path fill-rule="evenodd" clip-rule="evenodd" d="M16.6317 12.7041C16.2236 11.7968 15.794 11.7787 15.4057 11.7628C15.0882 11.7492 14.7246 11.75 14.3617 11.75C13.9985 11.75 13.4081 11.8864 12.909 12.4316C12.4095 12.9768 11.002 14.2947 11.002 16.9751C11.002 19.6558 12.9544 22.2458 13.2265 22.6096C13.499 22.9729 16.9955 28.6492 22.5331 30.833C27.1352 32.6478 28.0717 32.2868 29.0707 32.196C30.0696 32.1052 32.2939 30.8784 32.748 29.6062C33.202 28.3342 33.202 27.2439 33.0658 27.016C32.9295 26.7889 32.5664 26.6527 32.0215 26.3803C31.4766 26.1079 28.7982 24.7897 28.2987 24.6081C27.7993 24.4265 27.436 24.3356 27.0728 24.881C26.7095 25.4259 25.6661 26.6527 25.3482 27.016C25.0304 27.3801 24.7126 27.4255 24.1677 27.1531C23.6228 26.8798 21.8682 26.3051 19.7866 24.4492C18.167 23.0052 17.0736 21.2219 16.7557 20.6765C16.4379 20.1316 16.7217 19.8365 16.995 19.5649C17.2396 19.3208 17.5399 18.929 17.8123 18.6109C18.0841 18.2927 18.175 18.0657 18.3566 17.7024C18.5381 17.3386 18.4474 17.0204 18.3112 16.748C18.175 16.4756 17.1162 13.7813 16.6317 12.7041Z" fill="white"/>
</svg>
