<svg width="70" height="71" viewBox="0 0 70 71" fill="none" xmlns="http://www.w3.org/2000/svg">
<circle cx="35" cy="35.26" r="35" fill="#F8F8F8"/>
<path d="M45.5691 49.703H24.9046C23.3387 49.703 21.8369 49.0927 20.7299 48.0062C19.6225 46.9201 19.0005 45.4467 19.0005 43.9104V34.4974C19.0005 32.6743 19.8756 30.9572 21.3621 29.8633L32.58 21.6089C33.3463 21.0448 34.2788 20.74 35.2369 20.74C36.1949 20.74 37.1274 21.0448 37.8937 21.6089L49.1116 29.8633C50.5981 30.9572 51.4732 32.6743 51.4732 34.4974V43.9104C51.4732 45.4467 50.8512 46.9201 49.7438 48.0062C48.6368 49.0927 47.135 49.703 45.5691 49.703ZM35.2369 23.6363C34.9176 23.6363 34.6066 23.7378 34.3512 23.9259L23.1334 32.1804C22.3901 32.7273 21.9526 33.5858 21.9526 34.4974V43.9104C21.9526 44.6784 22.2636 45.4151 22.8171 45.9585C23.3709 46.5015 24.1218 46.8067 24.9046 46.8067H45.5691C46.3519 46.8067 47.1028 46.5015 47.6566 45.9585C48.2101 45.4151 48.5212 44.6784 48.5212 43.9104V34.4974C48.5212 33.5858 48.0836 32.7273 47.3403 32.1804L36.1225 23.9259C35.8671 23.7378 35.5561 23.6363 35.2369 23.6363Z" fill="#D0A258"/>
<path d="M45.5691 49.703H24.9046C23.3387 49.703 21.8369 49.0927 20.7299 48.0062C19.6225 46.9201 19.0005 45.4467 19.0005 43.9104V34.4974C19.0005 32.6743 19.8756 30.9572 21.3621 29.8633L32.58 21.6089C33.3463 21.0448 34.2788 20.74 35.2369 20.74C36.1949 20.74 37.1274 21.0448 37.8937 21.6089L49.1116 29.8633C50.5981 30.9572 51.4732 32.6743 51.4732 34.4974V43.9104C51.4732 45.4467 50.8512 46.9201 49.7438 48.0062C48.6368 49.0927 47.135 49.703 45.5691 49.703ZM35.2369 23.6363C34.9176 23.6363 34.6066 23.7378 34.3512 23.9259L23.1334 32.1804C22.3901 32.7273 21.9526 33.5858 21.9526 34.4974V43.9104C21.9526 44.6784 22.2636 45.4151 22.8171 45.9585C23.3709 46.5015 24.1218 46.8067 24.9046 46.8067H45.5691C46.3519 46.8067 47.1028 46.5015 47.6566 45.9585C48.2101 45.4151 48.5212 44.6784 48.5212 43.9104V34.4974C48.5212 33.5858 48.0836 32.7273 47.3403 32.1804L36.1225 23.9259C35.8671 23.7378 35.5561 23.6363 35.2369 23.6363Z" stroke="white"/>
<path d="M38.8992 35.4649H36.7018V33.2744C36.7018 32.7525 36.4226 32.2704 35.9694 32.0097C35.5161 31.7489 34.9576 31.7489 34.5044 32.0097C34.0512 32.2704 33.772 32.7525 33.772 33.2744V35.4649H31.5745C31.051 35.4649 30.5674 35.7432 30.3058 36.195C30.0442 36.6468 30.0442 37.2036 30.3058 37.6554C30.5674 38.1071 31.051 38.3855 31.5745 38.3855H33.772V40.576C33.772 41.0979 34.0512 41.58 34.5044 41.8407C34.9576 42.1015 35.5162 42.1015 35.9694 41.8407C36.4226 41.58 36.7018 41.0979 36.7018 40.576V38.3855H38.8992C39.4228 38.3855 39.9064 38.1072 40.168 37.6554C40.4296 37.2036 40.4296 36.6468 40.168 36.195C39.9064 35.7433 39.4227 35.4649 38.8992 35.4649Z" fill="#D0A258"/>
<path d="M38.8992 35.4649H36.7018V33.2744C36.7018 32.7525 36.4226 32.2704 35.9694 32.0097C35.5161 31.7489 34.9576 31.7489 34.5044 32.0097C34.0512 32.2704 33.772 32.7525 33.772 33.2744V35.4649H31.5745C31.051 35.4649 30.5674 35.7432 30.3058 36.195C30.0442 36.6468 30.0442 37.2036 30.3058 37.6554C30.5674 38.1071 31.051 38.3855 31.5745 38.3855H33.772V40.576C33.772 41.0979 34.0512 41.58 34.5044 41.8407C34.9576 42.1015 35.5162 42.1015 35.9694 41.8407C36.4226 41.58 36.7018 41.0979 36.7018 40.576V38.3855H38.8992C39.4228 38.3855 39.9064 38.1072 40.168 37.6554C40.4296 37.2036 40.4296 36.6468 40.168 36.195C39.9064 35.7433 39.4227 35.4649 38.8992 35.4649Z" stroke="white"/>
</svg>
