<svg width="32" height="32" viewBox="0 0 32 32" fill="none" xmlns="http://www.w3.org/2000/svg">
<ellipse cx="15.8679" cy="15.8679" rx="15.8679" ry="15.8679" fill="#F8F8F8"/>
<path d="M11.2909 22.4158C10.581 22.4158 9.90013 22.1391 9.39824 21.6466C8.8962 21.1542 8.61418 20.4862 8.61418 19.7896V15.5221C8.61418 14.6956 9.01091 13.9171 9.68488 13.4212L14.7707 9.67887C15.1181 9.42314 15.5409 9.28494 15.9752 9.28494C16.4096 9.28494 16.8323 9.42314 17.1798 9.67887L22.2656 13.4212C22.9396 13.9171 23.3363 14.6956 23.3363 15.5221V19.7896C23.3363 20.4862 23.0543 21.1542 22.5522 21.6466C22.0503 22.1391 21.3695 22.4158 20.6595 22.4158H11.2909ZM15.9752 10.598C15.8305 10.598 15.6895 10.644 15.5737 10.7293L10.4879 14.4716C10.1509 14.7196 9.95255 15.1088 9.95255 15.5221V19.7896C9.95255 20.1378 10.0936 20.4718 10.3445 20.7182C10.5956 20.9644 10.936 21.1027 11.2909 21.1027H20.6595C21.0144 21.1027 21.3549 20.9644 21.606 20.7182C21.8569 20.4718 21.9979 20.1378 21.9979 19.7896V15.5221C21.9979 15.1088 21.7995 14.7196 21.4626 14.4716L16.3767 10.7293C16.261 10.644 16.12 10.598 15.9752 10.598Z" fill="#D0A258"/>
<path d="M11.2909 22.4158C10.581 22.4158 9.90013 22.1391 9.39824 21.6466C8.8962 21.1542 8.61418 20.4862 8.61418 19.7896V15.5221C8.61418 14.6956 9.01091 13.9171 9.68488 13.4212L14.7707 9.67887C15.1181 9.42314 15.5409 9.28494 15.9752 9.28494C16.4096 9.28494 16.8323 9.42314 17.1798 9.67887L22.2656 13.4212C22.9396 13.9171 23.3363 14.6956 23.3363 15.5221V19.7896C23.3363 20.4862 23.0543 21.1542 22.5522 21.6466C22.0503 22.1391 21.3695 22.4158 20.6595 22.4158H11.2909ZM15.9752 10.598C15.8305 10.598 15.6895 10.644 15.5737 10.7293L10.4879 14.4716C10.1509 14.7196 9.95255 15.1088 9.95255 15.5221V19.7896C9.95255 20.1378 10.0936 20.4718 10.3445 20.7182C10.5956 20.9644 10.936 21.1027 11.2909 21.1027H20.6595C21.0144 21.1027 21.3549 20.9644 21.606 20.7182C21.8569 20.4718 21.9979 20.1378 21.9979 19.7896V15.5221C21.9979 15.1088 21.7995 14.7196 21.4626 14.4716L16.3767 10.7293C16.261 10.644 16.12 10.598 15.9752 10.598Z" stroke="white"/>
<path d="M17.6356 15.9607H16.6394V14.9676C16.6394 14.731 16.5128 14.5125 16.3073 14.3942C16.1018 14.276 15.8486 14.276 15.6431 14.3942C15.4377 14.5125 15.3111 14.731 15.3111 14.9676V15.9607H14.3148C14.0775 15.9607 13.8582 16.0869 13.7396 16.2918C13.621 16.4966 13.621 16.749 13.7396 16.9538C13.8582 17.1586 14.0775 17.2848 14.3148 17.2848H15.3111V18.2779C15.3111 18.5145 15.4377 18.7331 15.6431 18.8513C15.8486 18.9696 16.1018 18.9696 16.3073 18.8513C16.5128 18.7331 16.6394 18.5145 16.6394 18.2779V17.2848H17.6356C17.873 17.2848 18.0922 17.1586 18.2108 16.9538C18.3294 16.749 18.3294 16.4966 18.2108 16.2918C18.0922 16.0869 17.873 15.9607 17.6356 15.9607Z" fill="#D0A258"/>
<path d="M17.6356 15.9607H16.6394V14.9676C16.6394 14.731 16.5128 14.5125 16.3073 14.3942C16.1018 14.276 15.8486 14.276 15.6431 14.3942C15.4377 14.5125 15.3111 14.731 15.3111 14.9676V15.9607H14.3148C14.0775 15.9607 13.8582 16.0869 13.7396 16.2918C13.621 16.4966 13.621 16.749 13.7396 16.9538C13.8582 17.1586 14.0775 17.2848 14.3148 17.2848H15.3111V18.2779C15.3111 18.5145 15.4377 18.7331 15.6431 18.8513C15.8486 18.9696 16.1018 18.9696 16.3073 18.8513C16.5128 18.7331 16.6394 18.5145 16.6394 18.2779V17.2848H17.6356C17.873 17.2848 18.0922 17.1586 18.2108 16.9538C18.3294 16.749 18.3294 16.4966 18.2108 16.2918C18.0922 16.0869 17.873 15.9607 17.6356 15.9607Z" stroke="white"/>
</svg>
