<svg width="70" height="71" viewBox="0 0 70 71" fill="none" xmlns="http://www.w3.org/2000/svg">
<circle cx="35" cy="35.26" r="35" fill="#F8F8F8"/>
<path fill-rule="evenodd" clip-rule="evenodd" d="M33.2107 22.0686C39.5715 22.0686 44.7339 27.2366 44.7339 33.6511C44.7339 36.0526 43.9964 38.272 42.7673 40.1263L48.7593 46.1456C49.4969 46.9056 49.4969 48.1215 48.7593 48.8815C48.0218 49.6415 46.7927 49.6415 46.0552 48.8815L40.1246 42.923C38.1886 44.3822 35.8227 45.2334 33.2107 45.2334C26.8499 45.2031 21.6875 40.0351 21.6875 33.6509C21.6875 27.2365 26.8498 22.0685 33.2107 22.0685L33.2107 22.0686ZM33.2107 25.9295C28.9702 25.9295 25.5286 29.3951 25.5286 33.6512C25.5286 37.9072 28.9702 41.3728 33.2107 41.3728C37.4513 41.3728 40.8929 37.9072 40.8929 33.6512C40.9235 29.3647 37.482 25.9295 33.2107 25.9295Z" fill="#D0A258"/>
</svg>
