<svg width="32" height="32" viewBox="0 0 32 32" fill="none" xmlns="http://www.w3.org/2000/svg">
<ellipse cx="15.8679" cy="15.8679" rx="15.8679" ry="15.8679" fill="#F8F8F8"/>
<path fill-rule="evenodd" clip-rule="evenodd" d="M15.0567 9.88734C17.9405 9.88734 20.2809 12.2303 20.2809 15.1385C20.2809 16.2272 19.9466 17.2334 19.3893 18.0741L22.1059 20.803C22.4403 21.1476 22.4403 21.6988 22.1059 22.0434C21.7716 22.388 21.2143 22.388 20.88 22.0434L18.1912 19.342C17.3135 20.0036 16.2409 20.3895 15.0567 20.3895C12.1729 20.3757 9.83243 18.0327 9.83243 15.1384C9.83243 12.2303 12.1728 9.88727 15.0567 9.88727L15.0567 9.88734ZM15.0567 11.6377C13.1341 11.6377 11.5739 13.2089 11.5739 15.1385C11.5739 17.068 13.1341 18.6392 15.0567 18.6392C16.9792 18.6392 18.5395 17.068 18.5395 15.1385C18.5534 13.1951 16.9931 11.6377 15.0567 11.6377V11.6377Z" fill="#D0A258"/>
</svg>
