<svg width="32" height="32" viewBox="0 0 32 32" fill="none" xmlns="http://www.w3.org/2000/svg">
<ellipse cx="15.8679" cy="15.8679" rx="15.8679" ry="15.8679" fill="#F8F8F8"/>
<path d="M14.1748 14.1748C13.8221 14.5272 13.344 14.7251 12.8455 14.7249C12.347 14.7247 11.8689 14.5266 11.5165 14.1741C11.164 13.8216 10.9661 13.3434 10.9661 12.845C10.9661 12.3464 11.164 11.8684 11.5165 11.5158C11.8689 11.1632 12.347 10.9651 12.8455 10.9649C13.344 10.9649 13.8221 11.1627 14.1748 11.515C14.5277 11.8676 14.726 12.3461 14.726 12.845C14.726 13.3438 14.5277 13.8222 14.1748 14.1748ZM20.2198 17.5659C19.8671 17.2135 19.389 17.0157 18.8904 17.0158C18.3919 17.0159 17.9139 17.2141 17.5615 17.5666C17.209 17.9192 17.011 18.3972 17.011 18.8958C17.011 19.3943 17.209 19.8724 17.5615 20.225C17.9139 20.5775 18.3919 20.7756 18.8904 20.7757C19.389 20.7759 19.8671 20.578 20.2198 20.2257C20.5726 19.873 20.7709 19.3946 20.7709 18.8958C20.7709 18.3969 20.5727 17.9185 20.2198 17.5659ZM12.1329 21.0152L21.0152 12.1329C21.2548 11.878 21.3439 11.5163 21.2498 11.1794C21.1558 10.8423 20.8925 10.579 20.5554 10.485C20.2185 10.3909 19.8568 10.48 19.6019 10.7196L10.7196 19.6019C10.48 19.8568 10.3909 20.2185 10.485 20.5554C10.579 20.8925 10.8423 21.1558 11.1794 21.2498C11.5163 21.3439 11.878 21.2548 12.1329 21.0152Z" fill="#D0A258"/>
</svg>
