<svg width="70" height="71" viewBox="0 0 70 71" fill="none" xmlns="http://www.w3.org/2000/svg">
<circle cx="35" cy="35.26" r="35" fill="#F8F8F8"/>
<path d="M31.2657 31.5255C30.4878 32.3028 29.4332 32.7392 28.3337 32.7389C27.2341 32.7385 26.1796 32.3015 25.4023 31.5239C24.6248 30.7464 24.1882 29.6917 24.1882 28.5923C24.1882 27.4926 24.6248 26.4382 25.4023 25.6605C26.1796 24.8828 27.2341 24.4458 28.3337 24.4455C29.4332 24.4453 30.4878 24.8817 31.2657 25.6589C32.0441 26.4366 32.4814 27.4919 32.4814 28.5923C32.4814 29.6926 32.0441 30.7478 31.2657 31.5255ZM44.5992 39.0052C43.8213 38.2281 42.7667 37.7917 41.667 37.792C40.5676 37.7922 39.5131 38.2294 38.7358 39.0068C37.9583 39.7845 37.5215 40.839 37.5215 41.9386C37.5215 43.0383 37.9583 44.0927 38.7358 44.8704C39.5131 45.6479 40.5676 46.0851 41.667 46.0852C42.7667 46.0856 43.8213 45.6492 44.5992 44.872C45.3776 44.0942 45.8149 43.039 45.8149 41.9386C45.8149 40.8383 45.3776 39.7831 44.5992 39.0052ZM26.7619 46.6135L46.3537 27.0217C46.8823 26.4594 47.0787 25.6617 46.8712 24.9185C46.6639 24.1751 46.083 23.5942 45.3396 23.3869C44.5964 23.1794 43.7987 23.3758 43.2364 23.9044L23.6446 43.4961C23.116 44.0585 22.9196 44.8561 23.1271 45.5994C23.3344 46.3428 23.9153 46.9237 24.6587 47.131C25.4019 47.3385 26.1996 47.142 26.7619 46.6135Z" fill="#D0A258"/>
</svg>
