<svg width="70" height="71" viewBox="0 0 70 71" fill="none" xmlns="http://www.w3.org/2000/svg">
<circle cx="35" cy="35.26" r="35" fill="#F8F8F8"/>
<path d="M27.6486 36.03H30.0486V27.27C29.5886 27.19 29.1486 27.08 28.7286 26.94C28.3086 26.78 27.9286 26.6 27.5886 26.4V25.26H31.3686C32.1686 25.26 33.0286 25.22 33.9486 25.14C34.8886 25.06 35.7886 25.02 36.6486 25.02C37.7086 25.02 38.7286 25.12 39.7086 25.32C40.6886 25.52 41.5586 25.87 42.3186 26.37C43.0786 26.85 43.6886 27.5 44.1486 28.32C44.6086 29.14 44.8386 30.16 44.8386 31.38C44.8386 32.56 44.6086 33.57 44.1486 34.41C43.7086 35.23 43.0986 35.91 42.3186 36.45C41.5586 36.97 40.6686 37.36 39.6486 37.62C38.6286 37.86 37.5386 37.98 36.3786 37.98H34.5486V39.87H39.4086V41.82H34.5486V44.25C35.0886 44.33 35.6186 44.45 36.1386 44.61C36.6786 44.75 37.1586 44.92 37.5786 45.12V46.26H27.5886V45.12C27.9686 44.9 28.3686 44.72 28.7886 44.58C29.2286 44.44 29.6486 44.33 30.0486 44.25V41.82H27.6486V39.87H30.0486V37.98H27.6486V36.03ZM35.9886 26.97C35.6286 26.97 35.3386 26.99 35.1186 27.03C34.9186 27.05 34.7286 27.09 34.5486 27.15V36.03H35.8686C36.4686 36.03 37.0086 35.95 37.4886 35.79C37.9886 35.63 38.4186 35.37 38.7786 35.01C39.1386 34.65 39.4086 34.19 39.5886 33.63C39.7886 33.05 39.8886 32.35 39.8886 31.53C39.8886 29.97 39.5486 28.82 38.8686 28.08C38.2086 27.34 37.2486 26.97 35.9886 26.97Z" fill="#D0A258"/>
</svg>
