<svg width="32" height="32" viewBox="0 0 32 32" fill="none" xmlns="http://www.w3.org/2000/svg">
<ellipse cx="15.8679" cy="15.8679" rx="15.8679" ry="15.8679" fill="#F8F8F8"/>
<path d="M12.6813 16.1626H13.7694V12.1911C13.5609 12.1548 13.3614 12.1049 13.171 12.0415C12.9806 11.9689 12.8083 11.8873 12.6541 11.7966V11.2798H14.3679C14.7306 11.2798 15.1205 11.2617 15.5376 11.2254C15.9637 11.1891 16.3718 11.171 16.7617 11.171C17.2422 11.171 17.7047 11.2163 18.149 11.307C18.5933 11.3977 18.9877 11.5564 19.3323 11.783C19.6768 12.0007 19.9534 12.2954 20.1619 12.6671C20.3705 13.0389 20.4747 13.5013 20.4747 14.0544C20.4747 14.5894 20.3705 15.0473 20.1619 15.4281C19.9624 15.7999 19.6859 16.1082 19.3323 16.353C18.9877 16.5887 18.5842 16.7656 18.1218 16.8834C17.6593 16.9922 17.1652 17.0467 16.6392 17.0467H15.8096V17.9035H18.013V18.7876H15.8096V19.8893C16.0544 19.9255 16.2947 19.9799 16.5304 20.0525C16.7753 20.116 16.9929 20.193 17.1833 20.2837V20.8005H12.6541V20.2837C12.8264 20.184 13.0078 20.1024 13.1982 20.0389C13.3977 19.9754 13.5881 19.9255 13.7694 19.8893V18.7876H12.6813V17.9035H13.7694V17.0467H12.6813V16.1626ZM16.4624 12.0551C16.2992 12.0551 16.1677 12.0641 16.068 12.0823C15.9773 12.0913 15.8912 12.1095 15.8096 12.1367V16.1626H16.408C16.68 16.1626 16.9249 16.1263 17.1425 16.0538C17.3692 15.9812 17.5641 15.8634 17.7273 15.7001C17.8905 15.5369 18.013 15.3284 18.0946 15.0745C18.1852 14.8115 18.2306 14.4942 18.2306 14.1224C18.2306 13.4152 18.0764 12.8938 17.7681 12.5583C17.4689 12.2228 17.0337 12.0551 16.4624 12.0551Z" fill="#D0A258"/>
</svg>
